<svg width="1em" height="1em" viewBox="0 0 36 35" fill="none" xmlns="http://www.w3.org/2000/svg">
<path fill-rule="evenodd" clip-rule="evenodd" d="M22.6195 6.03374V4.90758C22.6195 4.85538 22.6184 4.80318 22.6158 4.75055C22.5921 4.6383 22.563 4.52776 22.5281 4.41895C22.472 4.30975 22.4107 4.20348 22.343 4.10054C22.272 4.02191 22.1979 3.94715 22.1199 3.87626C22.0222 3.81099 21.9216 3.75145 21.8173 3.69764C21.7076 3.66191 21.5961 3.63205 21.4829 3.6077C21.2723 3.59544 21.0599 3.59754 20.848 3.59963C20.7672 3.60043 20.6865 3.60123 20.6059 3.60123H16.8761H15.2319C15.1821 3.60123 15.1322 3.60102 15.0821 3.6008C14.9447 3.60022 14.8061 3.59963 14.6679 3.6034L14.7274 3.5697C14.6029 3.58747 14.4757 3.60525 14.35 3.62082C14.3676 3.61267 14.3853 3.60464 14.403 3.59672L14.3418 3.62183L14.3013 3.62674C14.2841 3.62862 14.267 3.63062 14.2499 3.63276L14.3013 3.62674L14.3395 3.62279C14.2886 3.64387 14.2377 3.66534 14.1868 3.68682C14.1349 3.70868 14.0829 3.73064 14.0311 3.75209L14.0562 3.73186L14.0291 3.7529L13.9706 3.77691C13.9893 3.76927 14.0081 3.76182 14.027 3.75455L13.7549 3.96616C13.7695 3.94651 13.7843 3.92698 13.7994 3.90755L13.7521 3.96836L13.6913 4.01566C13.7106 4.00069 13.73 3.98599 13.7496 3.97157L13.5383 4.24326C13.5456 4.22439 13.553 4.20559 13.5607 4.18683L13.5366 4.24537L13.5383 4.24326L13.5867 4.21584C13.5494 4.27713 13.5143 4.33963 13.4814 4.40348C13.4436 4.51934 13.4125 4.63716 13.3874 4.75694C13.3647 5.08312 13.3716 5.41522 13.3784 5.74441C13.3804 5.84115 13.3825 5.93772 13.3837 6.03374H14.7454H22.1601H22.6195ZM13.5867 4.21584C13.6103 4.17704 13.6347 4.13872 13.66 4.10084C13.7309 4.02284 13.8057 3.94881 13.8843 3.87778C13.9872 3.81006 14.0935 3.74875 14.2027 3.69264C14.3044 3.66008 14.4076 3.63253 14.5123 3.60971C14.5641 3.60684 14.6159 3.60481 14.6679 3.6034L13.5867 4.21584ZM3.11884 6.04276H4.97897C5.03699 6.0368 5.0957 6.03374 5.15495 6.03374H5.2C5.89088 6.02473 6.58376 6.02774 7.27598 6.03074C7.62178 6.03224 7.96758 6.03374 8.31272 6.03374H9.78106L9.78018 5.82861C9.77694 5.17096 9.77376 4.52623 9.89386 3.87151C10.1326 2.55164 11.0651 1.34439 12.2093 0.673196C13.0066 0.204711 13.903 0.00200116 14.822 0.00200116H18.205C18.5475 0.00200116 18.8895 0.00150015 19.2314 0.000999392L19.2324 0.000997933C19.915 5.43427e-07 20.5978 -0.000998298 21.2816 0.00200116C22.5114 0.00650583 23.6331 0.452468 24.5701 1.24078C25.6167 2.12706 26.1965 3.50209 26.2226 4.86088C26.223 4.87644 26.2233 4.892 26.2233 4.90758V4.93963V6.03374H28.2864H30.836C30.8744 6.03374 30.9124 6.03494 30.95 6.03729C30.9807 6.03819 31.0112 6.04002 31.0415 6.04276H33.3271H34.1965C35.2056 6.04276 35.9533 6.87162 35.9984 7.84463C36.0434 8.81763 35.138 9.64649 34.1965 9.64649H34.1425C33.8631 9.6495 33.5818 9.64849 33.3011 9.64749C33.1611 9.64699 33.0205 9.64649 32.8812 9.64649H32.6379V10.7096V14.9395V19.8991V24.6966V28.3544C32.6379 28.5347 32.6384 28.7146 32.6389 28.8942C32.6399 29.2531 32.6409 29.6113 32.6379 29.9715C32.6289 31.3004 32.0928 32.6473 31.1063 33.5527C30.1784 34.4041 28.9891 34.8816 27.7233 34.8861H25.8088H21.7546H16.804H12.1237H8.96139H8.31722C7.06042 34.8861 5.92525 34.4221 4.97476 33.6113C3.93418 32.7239 3.36209 31.3274 3.35308 29.976V29.5076V26.7732V22.4532V17.4711V12.7367V9.64649H2.67288H1.80348C0.794434 9.64649 0.0466602 8.82214 0.00161357 7.84463C-0.0434331 6.87162 0.862004 6.04276 1.80348 6.04276H1.85754C2.13699 6.03976 2.41845 6.04076 2.69924 6.04176C2.83929 6.04226 2.97946 6.04276 3.11884 6.04276ZM29.0432 10.0879V9.64649H26.5161H22.124H17.4166H12.7723H8.51092H6.96112L6.96082 9.6912C6.95882 9.99451 6.95681 10.298 6.95681 10.6015V16.2368V22.674V27.9444V29.494C6.95681 29.5417 6.9566 29.5895 6.95639 29.6373C6.95562 29.8108 6.95484 29.9857 6.96415 30.1597C6.98735 30.2641 7.01558 30.3671 7.04853 30.4685C7.10541 30.5785 7.16796 30.6856 7.23659 30.7892C7.30886 30.8688 7.38451 30.9445 7.46388 31.0162C7.5625 31.082 7.66441 31.1419 7.76962 31.1961C7.88783 31.2347 8.00731 31.2666 8.12856 31.2921C8.18244 31.2947 8.23631 31.2959 8.29019 31.2959C8.79472 31.2989 9.29924 31.2979 9.80376 31.2969C10.056 31.2964 10.3083 31.2959 10.5605 31.2959H15.4977H21.2231H25.9305H27.3134L27.4012 31.296C27.5771 31.2963 27.7518 31.2965 27.9271 31.2869C28.0328 31.2638 28.137 31.2359 28.2397 31.2028C28.3433 31.1496 28.4433 31.0917 28.5404 31.0281C28.6176 30.958 28.6915 30.885 28.7619 30.8082C28.8291 30.7069 28.8908 30.6025 28.9466 30.4942C28.9837 30.3804 29.0145 30.2646 29.0394 30.1469C29.042 30.0919 29.0432 30.0365 29.0432 29.9805C29.0462 29.4161 29.0452 28.8537 29.0442 28.2906C29.0437 28.0088 29.0432 27.7269 29.0432 27.4444V21.9037V15.462V10.0879ZM22.6059 4.61361C22.6045 4.59888 22.603 4.58409 22.6013 4.56924L22.5999 4.56628L22.6059 4.61361ZM22.5989 4.5581L22.6005 4.56182C22.5969 4.53026 22.5927 4.4984 22.588 4.46612C22.5915 4.49664 22.5951 4.52731 22.5989 4.5581ZM6.98835 30.431C6.98513 30.4063 6.98222 30.3816 6.9796 30.3569L6.98835 30.431ZM7.84423 31.2644L7.88942 31.2708C7.87435 31.2688 7.85929 31.2667 7.84423 31.2644ZM29.0117 30.431L29.0181 30.3859C29.0161 30.4009 29.0139 30.416 29.0117 30.431ZM16.2544 18.4576V14.2322C16.2544 13.2232 17.0788 12.4709 18.0563 12.4304C19.0293 12.3853 19.8582 13.2908 19.8582 14.2322V15.7638V22.4893V26.7147C19.8582 27.7237 19.0338 28.4715 18.0563 28.5165C17.0833 28.5616 16.2544 27.6561 16.2544 26.7147V25.1831V18.4576ZM10.047 15.9575V19.0117V23.8767V24.9894C10.047 25.9308 10.8759 26.8363 11.8489 26.7912C12.8264 26.7462 13.6507 25.9984 13.6507 24.9894V21.9352V17.0702V15.9575C13.6507 15.016 12.8219 14.1106 11.8489 14.1557C10.8714 14.2007 10.047 14.9485 10.047 15.9575ZM22.4619 19.0117V15.9575C22.4619 14.9485 23.2862 14.2007 24.2637 14.1557C25.2367 14.1106 26.0656 15.016 26.0656 15.9575V17.0702V21.9352V24.9894C26.0656 25.9984 25.2412 26.7462 24.2637 26.7912C23.2907 26.8363 22.4619 25.9308 22.4619 24.9894V23.8767V19.0117Z" fill="currentColor"/>
</svg>
